<?xml version="1.0" encoding="utf-8"?>
<!-- Generator: Adobe Illustrator 18.0.0, SVG Export Plug-In . SVG Version: 6.00 Build 0)  -->
<!DOCTYPE svg PUBLIC "-//W3C//DTD SVG 1.1//EN" "http://www.w3.org/Graphics/SVG/1.1/DTD/svg11.dtd">
<svg version="1.1" id="图形" xmlns="http://www.w3.org/2000/svg" xmlns:xlink="http://www.w3.org/1999/xlink" x="0px" y="0px"
	 viewBox="610.363 2279.068 1000.636 1000.208" enable-background="new 610.363 2279.068 1000.636 1000.208" xml:space="preserve">
<g>
	<path fill="#8C8C8C" d="M1177.082,2756.452c41.648-41.648,64.585-97.022,64.585-155.921s-22.936-114.274-64.585-155.922
		c-41.648-41.648-97.022-64.584-155.921-64.584c-58.899,0-114.273,22.936-155.921,64.584
		c-41.648,41.648-64.585,97.023-64.585,155.922s22.936,114.273,64.585,155.921s97.022,64.585,155.921,64.585
		C1080.06,2821.037,1135.433,2798.101,1177.082,2756.452z M849.163,2600.531c0-94.84,77.157-171.998,171.997-171.998
		s171.997,77.158,171.997,171.998s-77.157,171.997-171.997,171.997S849.163,2695.371,849.163,2600.531z"/>
	<path fill="#8C8C8C" d="M1287.849,2748.438c-78.092,0-141.625,63.533-141.625,141.625c0,78.093,63.533,141.626,141.625,141.626
		s141.625-63.533,141.625-141.626C1429.474,2811.971,1365.941,2748.438,1287.849,2748.438z M1287.849,3002.584
		c-62.044,0-112.52-50.477-112.52-112.521c0-62.043,50.477-112.52,112.52-112.52c62.044,0,112.52,50.477,112.52,112.52
		C1400.369,2952.108,1349.893,3002.584,1287.849,3002.584z"/>
	<path fill="#8C8C8C" d="M1120.567,2941.679c0-49.413-40.202-89.615-89.615-89.615s-89.615,40.201-89.615,89.615
		c0,49.414,40.201,89.615,89.615,89.615S1120.567,2991.093,1120.567,2941.679z M1030.952,3002.189
		c-33.365,0-60.51-27.145-60.51-60.51c0-33.365,27.145-60.51,60.51-60.51s60.51,27.145,60.51,60.51
		C1091.462,2975.044,1064.317,3002.189,1030.952,3002.189z"/>
	<path fill="#8C8C8C" d="M1146.708,3018.448c-41.657,0-75.547,33.891-75.547,75.547s33.891,75.547,75.547,75.547
		c41.657,0,75.547-33.89,75.547-75.547S1188.365,3018.448,1146.708,3018.448z M1146.708,3140.437
		c-25.608,0-46.442-20.833-46.442-46.441s20.834-46.442,46.442-46.442c25.608,0,46.441,20.834,46.441,46.442
		S1172.316,3140.437,1146.708,3140.437z"/>
</g>
</svg>
