<?xml version="1.0" encoding="utf-8"?>
<!-- Generator: Adobe Illustrator 18.0.0, SVG Export Plug-In . SVG Version: 6.00 Build 0)  -->
<!DOCTYPE svg PUBLIC "-//W3C//DTD SVG 1.1//EN" "http://www.w3.org/Graphics/SVG/1.1/DTD/svg11.dtd">
<svg version="1.1" id="图形" xmlns="http://www.w3.org/2000/svg" xmlns:xlink="http://www.w3.org/1999/xlink" x="0px" y="0px"
	 viewBox="610.363 1191.571 1000.636 1000.208" enable-background="new 610.363 1191.571 1000.636 1000.208" xml:space="preserve">
<g>
	<path fill="#8C8C8C" d="M1169.62,1332.458h-117.879c-13.807,0-25-11.193-25-25s11.193-25,25-25h117.879c13.807,0,25,11.193,25,25
		S1183.427,1332.458,1169.62,1332.458z"/>
	<path fill="#8C8C8C" d="M1169.62,1424.56h-117.879c-13.807,0-25-11.193-25-25s11.193-25,25-25h117.879c13.807,0,25,11.193,25,25
		S1183.427,1424.56,1169.62,1424.56z"/>
	<path fill="#8C8C8C" d="M1110.683,1940.04c-0.003,0,0,0-0.003,0c-32.131,0-64.221-7.184-95.379-21.35
		c-41.404-18.825-74.506-52.173-93.208-93.902c-25.434-56.75-27.509-117.8-5.842-171.905
		c19.27-48.117,56.256-87.715,102.636-110.411v-26.368c0-28.58,23.251-51.831,51.831-51.831h79.925
		c28.58,0,51.831,23.251,51.831,51.831v26.357c32.578,15.887,60.419,39.905,81.076,70.077
		c23.876,34.875,36.497,75.726,36.497,118.136c0,55.924-21.778,108.501-61.321,148.045
		C1219.184,1918.261,1166.604,1940.04,1110.683,1940.04z M1070.718,1514.273c-0.958,0-1.831,0.873-1.831,1.831v39.615
		c0,12.05-7.223,22.786-18.4,27.351c-39.824,16.26-71.832,48.481-87.819,88.401c-11.731,29.295-20.378,76.126,5.053,132.868
		c13.718,30.608,37.965,55.054,68.275,68.834c24.614,11.191,49.742,16.866,74.686,16.866c42.568,0.001,82.589-16.576,112.689-46.676
		c30.1-30.1,46.677-70.121,46.677-112.69c0-65.069-38.928-123.007-99.173-147.605c-11.177-4.562-18.4-15.297-18.4-27.347v-39.619
		c0-0.958-0.873-1.831-1.831-1.831H1070.718z"/>
	<path fill="#8C8C8C" d="M1110.68,2100.892c-49.543,0-97.612-9.707-142.872-28.85c-43.708-18.487-82.959-44.95-116.663-78.653
		s-60.166-72.954-78.653-116.663c-19.143-45.26-28.85-93.329-28.85-142.872c0-63.58,16.519-126.233,47.77-181.185
		c30.297-53.275,73.853-98.53,125.958-130.873c7.038-4.369,16.286-2.205,20.655,4.833c4.369,7.039,2.205,16.286-4.834,20.655
		c-99.905,62.014-159.55,169.143-159.55,286.57c0,185.843,151.194,337.038,337.038,337.038s337.038-151.195,337.038-337.038
		c0-117.427-59.645-224.556-159.55-286.57c-7.039-4.369-9.203-13.617-4.834-20.655c4.37-7.039,13.617-9.203,20.655-4.833
		c52.105,32.343,95.662,77.598,125.958,130.873c31.251,54.952,47.77,117.605,47.77,181.185c0,49.543-9.707,97.612-28.85,142.872
		c-18.487,43.708-44.95,82.959-78.653,116.663s-72.955,60.166-116.663,78.653C1208.293,2091.186,1160.223,2100.892,1110.68,2100.892
		z"/>
</g>
</svg>
