<?xml version="1.0" encoding="utf-8"?>
<!-- Generator: Adobe Illustrator 18.0.0, SVG Export Plug-In . SVG Version: 6.00 Build 0)  -->
<!DOCTYPE svg PUBLIC "-//W3C//DTD SVG 1.1//EN" "http://www.w3.org/Graphics/SVG/1.1/DTD/svg11.dtd">
<svg version="1.1" id="图形" xmlns="http://www.w3.org/2000/svg" xmlns:xlink="http://www.w3.org/1999/xlink" x="0px" y="0px"
	 viewBox="-515.274 2279.068 1000.636 1000.208" enable-background="new -515.274 2279.068 1000.636 1000.208" xml:space="preserve"
	>
<g>
	<path fill="#fff" d="M-182.096,2971.929c-13.165,4.162-20.462,18.208-16.3,31.373l17.509,55.38c-99.468-60.399-162.171-169.955-162.171-287.569
		c0-185.271,150.729-336,336-336c13.807,0,25-11.192,25-25s-11.193-25-25-25c-52.099,0-102.652,10.209-150.256,30.344
		c-45.968,19.442-87.246,47.271-122.687,82.713s-63.27,76.72-82.712,122.687c-20.135,47.604-30.344,98.158-30.344,150.257
		c0,74.244,21.136,146.353,61.122,208.529c33.365,51.879,78.413,94.815,131.399,125.539l-60.775,19.215
		c-13.165,4.162-20.462,18.208-16.3,31.373c3.37,10.658,13.217,17.471,23.83,17.471c2.497,0,5.036-0.377,7.543-1.17l139.679-44.161
		l-44.162-139.679C-154.884,2975.064-168.928,2967.766-182.096,2971.929z"/>
	<path fill="#fff" d="M170.627,2453.164l60.775-19.215c13.165-4.162,20.462-18.209,16.3-31.373c-4.162-13.165-18.206-20.465-31.374-16.301
		L76.65,2430.437l44.161,139.679c3.37,10.658,13.217,17.471,23.83,17.471c2.497,0,5.036-0.377,7.543-1.17
		c13.165-4.162,20.463-18.208,16.301-31.373l-17.508-55.379c99.468,60.399,162.171,169.955,162.171,287.569
		c0,185.271-150.729,336-336,336c-13.807,0-25,11.192-25,25s11.193,25,25,25c52.099,0,102.652-10.209,150.256-30.344
		c45.968-19.442,87.246-47.271,122.687-82.713s63.27-76.72,82.712-122.687c20.135-47.604,30.344-98.158,30.344-150.257
		c0-74.244-21.136-146.353-61.122-208.529C268.661,2526.824,223.613,2483.888,170.627,2453.164z"/>
	<path fill="#fff" d="M43.331,2987.173l-15.311,29.469c-3.819,7.352-0.957,16.407,6.395,20.227c2.21,1.148,4.573,1.692,6.903,1.692
		c5.419,0,10.652-2.946,13.323-8.087l38.172-73.471l-73.47-38.173c-7.35-3.819-16.407-0.955-20.226,6.395
		c-3.819,7.352-0.957,16.407,6.395,20.227l26.254,13.64c-61.948,14.143-128.246-4.374-173.724-49.85
		c-35.214-35.215-54.608-82.034-54.608-131.835s19.394-96.62,54.608-131.835c5.858-5.857,5.858-15.355,0-21.213
		c-5.857-5.858-15.354-5.858-21.213,0c-40.881,40.88-63.395,95.233-63.395,153.048s22.514,112.168,63.395,153.048
		c29.438,29.438,66.409,49.648,106.917,58.447c15.257,3.313,30.733,4.962,46.178,4.962
		C7.907,2993.864,25.844,2991.619,43.331,2987.173z"/>
	<path fill="#fff" d="M121.841,2943.047c2.929,2.93,6.767,4.394,10.606,4.394c3.838,0,7.678-1.465,10.606-4.394
		c40.881-40.88,63.395-95.233,63.395-153.048s-22.514-112.168-63.395-153.049c-29.438-29.438-66.409-49.648-106.917-58.446
		c-33.021-7.173-67.081-6.54-99.583,1.724l15.309-29.465c3.819-7.352,0.957-16.407-6.395-20.227
		c-7.351-3.819-16.407-0.956-20.226,6.395l-38.173,73.471l73.471,38.173c2.21,1.148,4.573,1.692,6.903,1.692
		c5.419,0,10.652-2.946,13.323-8.087c3.819-7.352,0.957-16.407-6.395-20.227l-26.253-13.64
		c61.949-14.143,128.247,4.372,173.724,49.849c35.214,35.215,54.608,82.035,54.608,131.836s-19.394,96.62-54.608,131.835
		C115.983,2927.692,115.983,2937.19,121.841,2943.047z"/>
</g>
</svg>
