<?xml version="1.0" encoding="utf-8"?>
<!-- Generator: Adobe Illustrator 18.0.0, SVG Export Plug-In . SVG Version: 6.00 Build 0)  -->
<!DOCTYPE svg PUBLIC "-//W3C//DTD SVG 1.1//EN" "http://www.w3.org/Graphics/SVG/1.1/DTD/svg11.dtd">
<svg version="1.1" id="图形" xmlns="http://www.w3.org/2000/svg" xmlns:xlink="http://www.w3.org/1999/xlink" x="0px" y="0px"
	 viewBox="1733.641 1191.571 1000.636 1000.208" enable-background="new 1733.641 1191.571 1000.636 1000.208" xml:space="preserve"
	>
<g>
	<g>
		<path fill="#fff" d="M1959.058,1691.71h-131.233c-8.284,0-15-6.716-15-15s6.716-15,15-15h131.233c8.284,0,15,6.716,15,15
			S1967.342,1691.71,1959.058,1691.71z"/>
		<path fill="#fff" d="M2640.094,1691.71h-131.233c-8.284,0-15-6.716-15-15s6.716-15,15-15h131.233c8.284,0,15,6.716,15,15
			S2648.378,1691.71,2640.094,1691.71z"/>
	</g>
	<path fill="#fff" d="M2233.959,2095.434c-8.284,0-15-6.716-15-15v-131.233c0-8.284,6.716-15,15-15s15,6.716,15,15v131.233
		C2248.959,2088.718,2242.244,2095.434,2233.959,2095.434z"/>
	<g>
		<path fill="#fff" d="M1913.838,1989.201c-3.839,0-7.678-1.464-10.606-4.394c-5.858-5.858-5.858-15.355,0-21.213l92.796-92.796
			c5.857-5.858,15.355-5.858,21.213,0c5.858,5.857,5.858,15.355,0,21.213l-92.796,92.796
			C1921.515,1987.737,1917.676,1989.201,1913.838,1989.201z"/>
		<path fill="#fff" d="M2554.082,1983.678c-3.839,0-7.678-1.464-10.606-4.394l-92.796-92.796c-5.858-5.858-5.858-15.355,0-21.213
			c5.857-5.858,15.355-5.858,21.213,0l92.796,92.796c5.858,5.858,5.858,15.355,0,21.213
			C2561.759,1982.213,2557.92,1983.678,2554.082,1983.678z"/>
	</g>
	<path fill="#fff" d="M2190.673,1830.751c-1.792,0-3.612-0.416-5.317-1.292c-2.201-1.131-54.04-28.306-66.928-80.977
		c-19.161-78.312,25.495-127.646,27.405-129.708c4.378-4.727,11.761-5.009,16.488-0.628c4.716,4.37,5.007,11.729,0.657,16.457
		c-0.218,0.241-9.78,10.92-17.174,29.503c-9.86,24.782-11.445,51.304-4.71,78.83c10.32,42.179,54.505,65.549,54.95,65.78
		c5.71,2.965,7.953,9.999,5,15.715C2198.971,1828.445,2194.896,1830.751,2190.673,1830.751z"/>
	<path fill="#fff" d="M2288.729,1337.916H2179.19c-13.807,0-25-11.193-25-25s11.193-25,25-25h109.539c13.807,0,25,11.193,25,25
		S2302.536,1337.916,2288.729,1337.916z"/>
	<path fill="#fff" d="M2288.729,1423.5H2179.19c-13.807,0-25-11.193-25-25s11.193-25,25-25h109.539c13.807,0,25,11.193,25,25
		S2302.536,1423.5,2288.729,1423.5z"/>
	<path fill="#fff" d="M2233.962,1902.507c-0.003,0,0,0-0.003,0c-30.112,0-60.178-6.729-89.362-19.998
		c-38.867-17.672-69.94-48.975-87.495-88.145c-23.832-53.176-25.77-110.397-5.457-161.123
		c17.93-44.774,52.224-81.683,95.247-103.041v-23.402c0-27.533,22.4-49.933,49.933-49.933h74.27
		c27.533,0,49.932,22.399,49.932,49.932v23.39c30.12,14.897,55.87,37.236,75.03,65.221c22.389,32.703,34.224,71.009,34.224,110.777
		c0,52.439-20.421,101.74-57.5,138.82C2335.702,1882.085,2286.398,1902.507,2233.962,1902.507z M2196.892,1506.866v36.745
		c0,11.92-7.144,22.54-18.201,27.054c-36.563,14.929-65.951,44.513-80.629,81.166c-10.774,26.904-18.71,69.924,4.667,122.085
		c12.571,28.048,34.789,50.45,62.562,63.077c22.641,10.294,45.745,15.514,68.669,15.514c39.084,0.001,75.828-15.219,103.464-42.855
		s42.856-64.381,42.856-103.465c0-59.743-35.741-112.939-91.055-135.523c-11.056-4.515-18.198-15.132-18.198-27.05v-36.748H2196.892
		z"/>
</g>
</svg>
