<?xml version="1.0" encoding="utf-8"?>
<!-- Generator: Adobe Illustrator 18.0.0, SVG Export Plug-In . SVG Version: 6.00 Build 0)  -->
<!DOCTYPE svg PUBLIC "-//W3C//DTD SVG 1.1//EN" "http://www.w3.org/Graphics/SVG/1.1/DTD/svg11.dtd">
<svg version="1.1" id="图形" xmlns="http://www.w3.org/2000/svg" xmlns:xlink="http://www.w3.org/1999/xlink" x="0px" y="0px"
	 viewBox="-1640.91 1191.571 1000.636 1000.208" enable-background="new -1640.91 1191.571 1000.636 1000.208" xml:space="preserve"
	>
<g>
	<path fill="#8C8C8C" d="M-1309.51,1420.892c8.413,0,16.661,4.097,21.632,11.651c7.852,11.933,4.543,27.973-7.39,35.825
		c-79.598,52.375-127.119,140.447-127.119,235.592c0,155.382,126.413,281.795,281.795,281.795
		c155.382,0,281.795-126.413,281.795-281.795c0-90.366-43.837-175.9-117.263-228.803c-11.59-8.351-14.217-24.516-5.866-36.106
		c5.055-7.016,12.974-10.748,21.008-10.748c5.238,0,10.524,1.586,15.098,4.882c42.019,30.274,76.9,70.475,100.873,116.258
		c24.781,47.327,37.88,100.758,37.88,154.517c0,89.088-34.693,172.844-97.688,235.839c-62.995,62.995-146.75,97.687-235.839,97.687
		c-89.088,0-172.844-34.692-235.838-97.687s-97.688-146.751-97.688-235.839c0-112.606,56.23-216.833,150.415-278.806
		C-1319.323,1422.271-1314.388,1420.892-1309.51,1420.892 M-1309.51,1370.892c-14.847,0-29.26,4.321-41.68,12.494
		c-108.281,71.248-172.928,191.089-172.928,320.573c0,102.443,39.894,198.755,112.332,271.194
		c72.438,72.438,168.75,112.332,271.194,112.332c102.444,0,198.756-39.894,271.194-112.332
		c72.438-72.439,112.332-168.751,112.332-271.194c0-61.804-15.072-123.256-43.585-177.71c-27.559-52.63-67.65-98.839-115.94-133.631
		c-12.996-9.364-28.324-14.314-44.326-14.314c-24.337,0-47.356,11.783-61.576,31.519c-11.846,16.441-16.58,36.512-13.33,56.514
		c3.25,20.002,14.094,37.541,30.535,49.387c60.42,43.532,96.491,113.9,96.491,188.235c0,127.812-103.983,231.795-231.795,231.795
		s-231.795-103.983-231.795-231.795c0-78.268,39.104-150.725,104.603-193.823c16.928-11.138,28.506-28.202,32.6-48.049
		c4.094-19.847,0.214-40.1-10.925-57.029C-1260.188,1383.664-1283.889,1370.892-1309.51,1370.892L-1309.51,1370.892z"/>
	<path fill="#8C8C8C" d="M-1140.592,1684.309c-13.807,0-25-11.193-25-25v-338.443c0-13.807,11.193-25,25-25s25,11.193,25,25v338.443
		C-1115.592,1673.116-1126.784,1684.309-1140.592,1684.309z"/>
</g>
</svg>
