<?xml version="1.0" encoding="utf-8"?>
<!-- Generator: Adobe Illustrator 18.0.0, SVG Export Plug-In . SVG Version: 6.00 Build 0)  -->
<!DOCTYPE svg PUBLIC "-//W3C//DTD SVG 1.1//EN" "http://www.w3.org/Graphics/SVG/1.1/DTD/svg11.dtd">
<svg version="1.1" id="图形" xmlns="http://www.w3.org/2000/svg" xmlns:xlink="http://www.w3.org/1999/xlink" x="0px" y="0px"
	 viewBox="-515.274 1191.571 1000.636 1000.208" enable-background="new -515.274 1191.571 1000.636 1000.208" xml:space="preserve"
	>
<g>
	<path fill="#fff" d="M-89.155,1969.742c-2.305,0-4.644-0.534-6.836-1.661c-2.829-1.454-69.477-36.392-86.046-104.109
		c-24.635-100.682,32.778-164.109,35.234-166.76c5.631-6.077,15.122-6.438,21.198-0.808c6.064,5.618,6.438,15.08,0.845,21.158
		c-0.298,0.33-12.581,14.057-22.08,37.931c-12.677,31.861-14.715,65.96-6.056,101.349c13.269,54.228,70.076,84.275,70.648,84.572
		c7.341,3.812,10.225,12.855,6.428,20.204C-78.487,1966.778-83.724,1969.742-89.155,1969.742z"/>
	<path fill="#fff" d="M67.052,1327.238H-95.056c-13.807,0-25-11.193-25-25s11.193-25,25-25H67.052c13.807,0,25,11.193,25,25
		S80.86,1327.238,67.052,1327.238z"/>
	<path fill="#fff" d="M67.052,1424.425H-95.056c-13.807,0-25-11.193-25-25s11.193-25,25-25H67.052c13.807,0,25,11.193,25,25
		S80.86,1424.425,67.052,1424.425z"/>
	<path fill="#fff" d="M-13.997,2106.112c-0.004,0,0,0-0.004,0c-42.838,0-85.663-9.596-127.283-28.519
		c-54.858-24.942-98.719-69.133-123.502-124.432c-17.477-38.996-26.792-79.119-27.684-119.256
		c-0.845-37.96,5.816-74.911,19.799-109.826c26.361-65.826,77.649-119.671,141.816-149.403v-42.184
		c0-34.131,27.768-61.898,61.898-61.898H40.956c34.131,0,61.898,27.767,61.898,61.898v42.176
		c45.613,21.076,84.542,53.975,113.136,95.74c31.762,46.393,48.55,100.739,48.55,157.163c0,74.402-28.973,144.35-81.582,196.959
		C130.352,2077.138,60.4,2106.112-13.997,2106.112z M-68.958,1520.595c-6.45,0-11.898,5.449-11.898,11.898v54.479
		c0,12.744-7.643,24.099-19.47,28.929c-57.106,23.317-103.005,69.521-125.93,126.766c-23.759,59.329-21.239,126.821,7.096,190.044
		c19.8,44.178,54.806,79.467,98.57,99.365c35.077,15.949,70.938,24.035,106.589,24.036c61.046,0.001,118.438-23.771,161.604-66.937
		c43.166-43.166,66.938-100.558,66.938-161.604c0-93.312-55.824-176.397-142.218-211.671c-11.827-4.829-19.469-16.182-19.469-28.924
		v-54.484c0-6.449-5.449-11.898-11.898-11.898H-68.958z"/>
</g>
</svg>
