<?xml version="1.0" encoding="utf-8"?>
<!-- Generator: Adobe Illustrator 18.0.0, SVG Export Plug-In . SVG Version: 6.00 Build 0)  -->
<!DOCTYPE svg PUBLIC "-//W3C//DTD SVG 1.1//EN" "http://www.w3.org/Graphics/SVG/1.1/DTD/svg11.dtd">
<svg version="1.1" id="图形" xmlns="http://www.w3.org/2000/svg" xmlns:xlink="http://www.w3.org/1999/xlink" x="0px" y="0px"
	 viewBox="1735.999 2279.068 1000.636 1000.208" enable-background="new 1735.999 2279.068 1000.636 1000.208" xml:space="preserve" 
	>
<g>  
	<path fill="#8C8C8C" d="M2582.764,2913.421c-6.355-73.554-61.165-130.181-136.386-140.91c-41.563-5.929-69.391,8.261-85.413,21.209
		c-22.555,18.225-37.265,46.874-39.349,76.638c-1.423,20.315,8.179,52.663,29.28,75.183c15.804,16.865,35.546,25.771,57.121,25.771
		c0.127,0,0.258-0.001,0.386-0.001c13.807-0.068,24.944-11.315,24.877-25.123c-0.068-13.766-11.247-24.877-24.997-24.877
		c-0.086,0-0.171,0.001-0.257,0.001c-7.612,0-14.366-3.259-20.645-9.959c-11.47-12.24-16.368-30.641-15.889-37.502
		c0.874-12.48,6.822-29.867,20.896-41.238c12.071-9.754,27.863-13.324,46.929-10.601c52.502,7.487,89.255,45.059,93.632,95.715
		c2.388,27.633-11.088,54.34-36.046,71.44c-33.425,22.901-78.024,23.575-122.358,1.853c-37.224-18.239-70.584-28.173-99.96-32.592
		c2.133-3.393,4.111-6.872,5.91-10.434c10.454-20.689,14.938-43.682,12.967-66.492c-6.355-73.554-61.165-130.181-136.387-140.91
		c-41.563-5.929-69.391,8.262-85.414,21.21c-22.555,18.225-37.264,46.874-39.348,76.637c-1.422,20.316,8.18,52.665,29.282,75.185
		c15.803,16.863,35.545,25.769,57.118,25.769c0.129,0,0.258-0.001,0.387-0.001c13.808-0.068,24.944-11.316,24.877-25.123
		c-0.068-13.766-11.247-24.877-24.997-24.877c-0.088-0.001-0.174,0-0.258,0.001c-7.611,0-14.365-3.259-20.643-9.958
		c-11.47-12.24-16.368-30.641-15.888-37.503c0.873-12.48,6.821-29.867,20.894-41.238c12.071-9.755,27.863-13.323,46.929-10.601
		c52.503,7.487,89.256,45.059,93.633,95.715c2.388,27.633-11.088,54.34-36.046,71.44c-0.164,0.112-0.332,0.215-0.496,0.326
		c-24.278,3.323-43.739,10.288-58.229,17.332c-20.395,0.025-42.044-5.227-63.634-15.806c-164.065-80.389-253.067,0.54-256.775,4.024
		c-10.063,9.454-10.555,25.275-1.1,35.338c9.452,10.061,25.275,10.555,35.338,1.1c0.147-0.138,16.082-14.15,46.604-21.44
		c44.472-10.622,97.702-1.673,153.933,25.879c28.227,13.83,56.775,20.816,85.003,20.815c2.996,0,5.991-0.078,8.979-0.236
		c23.588-1.244,46.121-7.547,65.987-18.353c38.955-3.009,83.184,7.081,129.335,29.694c28.227,13.83,56.775,20.816,85.003,20.815
		c2.996,0,5.99-0.078,8.978-0.236c28.753-1.517,55.945-10.536,78.639-26.085c19.127-13.105,34.562-30.568,44.633-50.5
		C2580.251,2959.223,2584.735,2936.231,2582.764,2913.421z"/>
	<path fill="#8C8C8C" d="M2046.032,2727.175c0.18-0.164,18.358-16.527,53.075-24.381c46.346-10.483,101.251-1.126,158.78,27.062
		c26.843,13.153,53.917,19.797,80.616,19.796c2.815,0,5.632-0.074,8.438-0.223c26.916-1.419,52.336-9.839,73.513-24.349
		c37.014-25.359,56.935-65.689,53.289-107.882c-2.971-34.384-16.959-65.129-40.452-88.91c-22.941-23.224-53.158-38.078-87.384-42.96
		c-30.082-4.289-56.954,2.312-77.717,19.088c-20.434,16.511-33.764,42.514-35.656,69.557c-1.271,18.151,7.457,47.216,26.601,67.646
		c13.863,14.796,31.086,22.608,49.828,22.608c0.11,0,0.222-0.001,0.333-0.001c8.284-0.041,14.967-6.79,14.926-15.074
		c-0.041-8.259-6.748-14.926-14.998-14.926c-0.086-0.001-0.171,0.001-0.257,0.001c-10.382,0-19.782-4.414-27.941-13.121
		c-13.186-14.072-19.254-35.197-18.565-45.037c1.322-18.885,10.513-36.947,24.585-48.318c14.318-11.569,32.701-15.851,54.626-12.723
		c57.281,8.17,97.391,49.288,102.184,104.753c2.702,31.273-12.385,61.387-40.357,80.552c-35.945,24.628-85.445,25.597-132.411,2.584
		c-35.82-17.552-70.803-28.503-103.975-32.549c-26.979-3.288-52.835-2.051-76.85,3.684c-41.76,9.974-63.786,30.334-64.703,31.195
		c-6.037,5.673-6.368,15.198-0.695,21.236C2030.535,2732.518,2039.994,2732.847,2046.032,2727.175z"/>
</g>
</svg>
