<?xml version="1.0" encoding="utf-8"?>
<!-- Generator: Adobe Illustrator 18.0.0, SVG Export Plug-In . SVG Version: 6.00 Build 0)  -->
<!DOCTYPE svg PUBLIC "-//W3C//DTD SVG 1.1//EN" "http://www.w3.org/Graphics/SVG/1.1/DTD/svg11.dtd">
<svg version="1.1" id="_x37C_" xmlns="http://www.w3.org/2000/svg" xmlns:xlink="http://www.w3.org/1999/xlink" x="0px" y="0px"
	 viewBox="0 0 1024 1024" enable-background="new 0 0 1024 1024" xml:space="preserve">
<g>
	<path fill-rule="evenodd" clip-rule="evenodd" fill="#fff" d="M619.752,751.747H404.274c-16.032,0-29.046,13.014-29.046,29.046
		c0,16.047,13.014,29.046,29.046,29.046h215.478c16.022,0,29.051-12.999,29.051-29.046
		C648.803,764.762,635.774,751.747,619.752,751.747z"/>
	<path fill-rule="evenodd" clip-rule="evenodd" fill="#fff" d="M455.532,908.635v15.817c0,17.861,14.464,32.341,32.346,32.341
		h48.276c17.836,0,32.331-14.48,32.331-32.341v-15.817c36.599-2.618,65.573-32.797,65.573-70.051H389.943
		C389.943,875.839,418.943,906.017,455.532,908.635z"/>
	<path fill-rule="evenodd" clip-rule="evenodd" fill="#fff" d="M526.06,203.208L526.06,203.208
		c-103.35,0-187.389,84.049-187.389,187.374c0,16.047-12.999,29.046-29.062,29.046c-16.047,0-29.046-12.999-29.046-29.046
		c0-135.348,110.119-245.472,245.497-245.472c16.022,0,29.046,12.999,29.046,29.036C555.106,190.194,542.082,203.208,526.06,203.208
		z"/>
	<path fill="#fff" d="M655.872,713.712H368.111l-5.261-8.973c-27.48-46.867-59.95-94.394-93.899-137.444
		c-43.325-54.947-66.226-120.931-66.226-190.819c0-170.531,138.747-309.269,309.291-309.269
		c170.526,0,309.26,138.738,309.26,309.269c0,69.853-22.888,135.825-66.189,190.782c-34.495,43.759-66.105,90.015-93.952,137.484
		L655.872,713.712z M388.858,677.4h246.269c27.37-45.752,58.098-90.321,91.439-132.618c38.203-48.487,58.397-106.687,58.397-168.306
		c0-150.509-122.444-272.957-272.947-272.957c-150.521,0-272.979,122.448-272.979,272.957c0,61.65,20.203,119.86,58.427,168.335
		C330.261,586.399,361.72,632.05,388.858,677.4z"/>
</g>
</svg>
