<?xml version="1.0" encoding="utf-8"?>
<!DOCTYPE svg PUBLIC "-//W3C//DTD SVG 1.1//EN" "http://www.w3.org/Graphics/SVG/1.1/DTD/svg11.dtd">
<svg version="1.1" id="图形" xmlns="http://www.w3.org/2000/svg" xmlns:xlink="http://www.w3.org/1999/xlink" x="0px" y="0px" width="1024px" height="1024px" viewBox="0 0 1024 1024" enable-background="new 0 0 1024 1024" xml:space="preserve">
  <path fill="#eb4f38" d="M929.598464 644.016896 667.293696 380.08192l262.304768-262.320128c10.916864-10.957824 10.916864-28.713984 0-39.673856L810.504192-40.978688c-10.916864-10.944512-28.685312-10.944512-39.658496 0L508.986368 220.881664l-260.3008-261.860352c-10.973184-10.944512-28.744704-10.944512-39.661568 0L89.931776 78.087936c-10.973184 10.959872-10.973184 28.716032 0 39.673856l260.299776 261.859328L89.931776 639.936256c-10.973184 10.945536-10.973184 28.715008 0 39.673856L209.024 798.676736c10.916864 10.959872 28.688384 10.959872 39.661568 0l259.853312-259.784704L770.845696 802.756352c10.974208 10.959872 28.741632 10.959872 39.658496 0l119.094272-119.0656C940.515328 672.73088 940.515328 654.976768 929.598464 644.016896L929.598464 644.016896z" transform="translate(0, 812) scale(1, -1)"/>
</svg>
