<?xml version="1.0" encoding="utf-8"?>
<!DOCTYPE svg PUBLIC "-//W3C//DTD SVG 1.1//EN" "http://www.w3.org/Graphics/SVG/1.1/DTD/svg11.dtd">
<svg version="1.1" id="图形" xmlns="http://www.w3.org/2000/svg" xmlns:xlink="http://www.w3.org/1999/xlink" x="0px" y="0px" width="1256px" height="1024px" viewBox="0 0 1256 1024" enable-background="new 0 0 1256 1024" xml:space="preserve">
  <path fill="#56abe4" d="M46.802016-71.816448M1136.745568-71.816448M84.15344-50.977024M535.672928-148.381952c109.876224 153.544704 223.55968 289.842176 308.03968 385.787904 49.87392 56.639488 96.715776 108.155904 141.549568 154.500096 40.576 41.945088 80.805888 80.405504 119.478272 116.59264 65.92 61.693952 142.984192 130.034688 191.446016 159.30368l-61.891584 82.050048c-89.732096-56.139776-176.10752-116.103168-242.799616-162.18112-38.863872-26.855424-74.928128-52.667392-108.915712-77.252608-33.668096-24.356864-68.429824-51.106816-105.081856-79.166464-63.633408-48.712704-145.388544-114.194432-224.555008-181.860352L354.292832 437.010176 121.09936 253.229824 535.672928-148.381952zM1333.134432-50.977024" transform="translate(0, 812) scale(1, -1)"/>
</svg>
